<svg width="161" height="44" viewBox="0 0 161 44" fill="none" xmlns="http://www.w3.org/2000/svg">
<rect x="1" width="29" height="40" fill="#C25FFF"/>
<rect x="15" width="15" height="40" fill="#B133FF"/>
<path d="M7.62817 10.9751C9.27814 10.9751 10.6157 9.63752 10.6157 7.98754C10.6157 6.33757 9.27814 5 7.62817 5C5.97819 5 4.64062 6.33757 4.64062 7.98754C4.64062 9.63752 5.97819 10.9751 7.62817 10.9751Z" fill="white"/>
<path d="M26.217 23.2021C26.085 19.7438 26.217 16.3309 26.217 12.9138C25.6941 10.2403 21.1185 10.575 20.0944 12.5013C20.0444 12.5653 19.9975 12.6323 19.9547 12.7076C18.5625 14.784 16.7578 16.5887 15.5007 18.2733C14.0198 16.5887 12.6328 14.784 11.0462 12.7081C10.9977 12.622 10.9441 12.5467 10.8874 12.4766C9.8448 10.5729 5.32631 10.245 4.80707 12.9004C4.80707 16.5887 4.93962 19.7315 4.8071 23.181C4.78338 23.8075 4.91902 24.3015 5.19385 24.7011C5.166 24.8197 5.14899 24.9481 5.14899 25.0868C5.14899 28.1264 5.14899 31.1665 5.14899 34.2072C5.14899 36.2362 8.2938 36.2362 8.2938 34.2072C8.2938 31.3393 8.2938 28.4698 8.2938 25.6024C9.25286 25.2925 10.0469 24.4943 10.0964 23.2021C10.1681 21.3263 10.0546 19.6954 10.0964 17.62C11.1153 18.8838 12.7509 20.0393 14.0198 21.0963C14.2725 21.7259 14.8448 22.1889 15.5002 22.0714C16.1556 22.1895 16.7274 21.7259 16.9806 21.0963C18.2495 20.0393 19.8861 18.8843 20.9045 17.62C20.9045 19.4247 20.8318 21.3 20.9045 23.163C20.954 24.4582 21.7465 25.2667 22.7061 25.588C22.7061 28.4605 22.7061 31.3341 22.7061 34.2077C22.7061 36.2367 25.8509 36.2367 25.8509 34.2077C25.8509 31.1675 25.8509 28.1269 25.8509 25.0873C25.8509 24.9558 25.8375 24.8346 25.8127 24.7196C26.084 24.3257 26.2412 23.8219 26.217 23.2021Z" fill="white"/>
<path d="M23.0972 10.9751C24.7471 10.9751 26.0847 9.63752 26.0847 7.98754C26.0847 6.33757 24.7471 5 23.0972 5C21.4472 5 20.1096 6.33757 20.1096 7.98754C20.1096 9.63752 21.4472 10.9751 23.0972 10.9751Z" fill="white"/>
<path d="M50.3008 28.3359H35.9922C36.2031 29.9062 36.8242 31.1777 37.8555 32.1504C38.8867 33.123 40.2051 33.6094 41.8105 33.6094C44.1426 33.6094 45.9883 32.6719 47.3477 30.7969L50.3008 32.0977C49.3398 33.5859 48.0918 34.6934 46.5566 35.4199C45.0215 36.1348 43.416 36.4922 41.7402 36.4922C39.1387 36.4922 36.9121 35.6836 35.0605 34.0664C33.2207 32.4375 32.3008 30.2461 32.3008 27.4922C32.3008 24.8789 33.1973 22.7285 34.9902 21.041C36.7949 19.3535 38.8633 18.5098 41.1953 18.5098C43.4805 18.5098 45.5488 19.3359 47.4004 20.9883C49.2637 22.6289 50.2305 25.0781 50.3008 28.3359ZM46.8555 25.9102C46.6211 24.7148 46 23.6367 44.9922 22.6758C43.9844 21.7031 42.748 21.2168 41.2832 21.2168C39.9473 21.2168 38.8047 21.6562 37.8555 22.5352C36.9062 23.4023 36.3262 24.5273 36.1152 25.9102H46.8555ZM58.9316 18.9844V21.041C61.0762 19.4941 63.0332 18.7207 64.8027 18.7207C65.9043 18.7207 66.8125 18.9844 67.5273 19.5117C68.2539 20.0273 68.7285 20.666 68.9512 21.4277C69.1738 22.1777 69.2852 23.2793 69.2852 24.7324V33.0293H72.1504V36H65.9453V24.873C65.9453 23.584 65.752 22.7461 65.3652 22.3594C64.9785 21.9609 64.5039 21.7617 63.9414 21.7617C62.4648 21.7617 60.7949 22.4824 58.9316 23.9238V33.0293H61.8672V36H52.6035V33.0293H55.5918V21.9551H52.6035V18.9844H58.9316ZM73.3633 21.9551V18.9844H75.5781V16.3652L78.918 13.3066V18.9844H82.0645V21.9551H78.918V30.2168C78.918 31.541 78.9883 32.3613 79.1289 32.6777C79.2812 32.9824 79.6504 33.1348 80.2363 33.1348C80.8574 33.1348 81.4668 33.0176 82.0645 32.7832V35.8242C81.209 36.1289 80.3535 36.2812 79.498 36.2812C78.4785 36.2812 77.6523 36.0586 77.0195 35.6133C76.3867 35.1562 75.9883 34.5879 75.8242 33.9082C75.6602 33.2285 75.5781 32.0566 75.5781 30.3926V21.9551H73.3633ZM84.5078 27.4922C84.5078 24.8672 85.375 22.7168 87.1094 21.041C88.8438 19.3535 90.959 18.5098 93.4551 18.5098C95.9043 18.5098 98.0078 19.3418 99.7656 21.0059C101.523 22.6582 102.402 24.8203 102.402 27.4922C102.402 30.1641 101.523 32.332 99.7656 33.9961C98.0195 35.6602 95.916 36.4922 93.4551 36.4922C90.9238 36.4922 88.7969 35.6484 87.0742 33.9609C85.3633 32.2734 84.5078 30.1172 84.5078 27.4922ZM88.041 27.4922C88.041 29.168 88.5625 30.5449 89.6055 31.623C90.6602 32.6895 91.9434 33.2227 93.4551 33.2227C94.9902 33.2227 96.2734 32.6836 97.3047 31.6055C98.3477 30.5156 98.8691 29.1445 98.8691 27.4922C98.8691 25.8281 98.3418 24.457 97.2871 23.3789C96.2324 22.3008 94.9551 21.7617 93.4551 21.7617C91.8848 21.7617 90.5898 22.3125 89.5703 23.4141C88.5508 24.5156 88.041 25.875 88.041 27.4922ZM107.992 33.0293V21.9551H104.564V18.9844H110.664V22.8164C111.039 21.8203 111.561 20.9941 112.229 20.3379C112.896 19.6816 113.6 19.248 114.338 19.0371C115.088 18.8262 116.107 18.7207 117.396 18.7207H118.275V22.0957H117.607C115.908 22.0957 114.637 22.2656 113.793 22.6055C112.961 22.9453 112.34 23.5664 111.93 24.4688C111.531 25.3594 111.332 26.9648 111.332 29.2852V33.0293H115.041V36H104.564V33.0293H107.992ZM122.248 33.0293V21.9551H119.77V19.002H122.248V16.541C122.248 14.4668 122.688 13.0371 123.566 12.252C124.445 11.4551 125.482 11.0566 126.678 11.0566C129.256 11.0566 130.75 12.3633 131.16 14.9766L128.189 15.4336C128.072 14.3438 127.645 13.7988 126.906 13.7988C126.402 13.7988 126.057 13.9746 125.869 14.3262C125.682 14.666 125.588 15.4043 125.588 16.541V19.002H128.506V21.9551H125.588V33.0293H128.822V36H119.77V33.0293H122.248ZM132.988 13.2012C132.988 12.6621 133.176 12.1934 133.551 11.7949C133.938 11.3965 134.424 11.1973 135.01 11.1973C135.561 11.1973 136.035 11.3906 136.434 11.7773C136.832 12.1641 137.031 12.6387 137.031 13.2012C137.031 13.7637 136.832 14.2441 136.434 14.6426C136.035 15.0293 135.561 15.2227 135.01 15.2227C134.447 15.2227 133.967 15.0234 133.568 14.625C133.182 14.2266 132.988 13.752 132.988 13.2012ZM133.463 33.0293V21.9551H130.809V18.9844H136.803V33.0293H139.422V36H130.809V33.0293H133.463ZM150.162 29.2324L146.857 33.0293H149.037V36H140.793V33.0293H143.307L148.422 27.2461L143.535 21.9551H141.232V18.9844H149.23V21.9551H147.104L150.162 25.2422L153.115 21.9551H151.375V18.9844H159.408V21.9551H156.613L151.955 27.2461L157.264 33.0293H159.408V36H151.375V33.0293H153.73L150.162 29.2324Z" fill="black"/>
</svg>
